<svg xmlns="http://www.w3.org/2000/svg" version="1.1">
<line x1="500.0" y1="500.0" x2="500.0" y2="501.0" stroke="blue" stroke-width="4" />
<line x1="500.0" y1="501.0" x2="500.8660254037844" y2="501.5" stroke="blue" stroke-width="4" />
<line x1="500.8660254037844" y1="501.5" x2="500.0" y2="502.0" stroke="blue" stroke-width="4" />
<line x1="500.0" y1="502.0" x2="500.0" y2="503.0" stroke="blue" stroke-width="4" />
<line x1="500.0" y1="503.0" x2="500.8660254037844" y2="503.5" stroke="blue" stroke-width="4" />
<line x1="500.8660254037844" y1="503.5" x2="501.73205080756884" y2="503.0" stroke="blue" stroke-width="4" />
<line x1="501.73205080756884" y1="503.0" x2="501.73205080756884" y2="504.0" stroke="blue" stroke-width="4" />
<line x1="501.73205080756884" y1="504.0" x2="502.59807621135326" y2="504.5" stroke="blue" stroke-width="4" />
<line x1="502.59807621135326" y1="504.5" x2="501.73205080756884" y2="505.0" stroke="blue" stroke-width="4" />
<line x1="501.73205080756884" y1="505.0" x2="501.73205080756884" y2="506.0" stroke="blue" stroke-width="4" />
<line x1="501.73205080756884" y1="506.0" x2="500.8660254037844" y2="505.5" stroke="blue" stroke-width="4" />
<line x1="500.8660254037844" y1="505.5" x2="500.0" y2="506.0" stroke="blue" stroke-width="4" />
<line x1="500.0" y1="506.0" x2="500.0" y2="507.0" stroke="blue" stroke-width="4" />
<line x1="500.0" y1="507.0" x2="500.8660254037844" y2="507.5" stroke="blue" stroke-width="4" />
<line x1="500.8660254037844" y1="507.5" x2="500.0" y2="508.0" stroke="blue" stroke-width="4" />
<line x1="500.0" y1="508.0" x2="500.0" y2="509.0" stroke="blue" stroke-width="4" />
<line x1="500.0" y1="509.0" x2="499.1339745962156" y2="508.5" stroke="blue" stroke-width="4" />
<line x1="499.1339745962156" y1="508.5" x2="498.26794919243116" y2="509.0" stroke="blue" stroke-width="4" />
<line x1="498.26794919243116" y1="509.0" x2="498.26794919243116" y2="508.0" stroke="blue" stroke-width="4" />
<line x1="498.26794919243116" y1="508.0" x2="497.40192378864674" y2="507.5" stroke="blue" stroke-width="4" />
<line x1="497.40192378864674" y1="507.5" x2="496.5358983848623" y2="508.0" stroke="blue" stroke-width="4" />
<line x1="496.5358983848623" y1="508.0" x2="496.5358983848623" y2="509.0" stroke="blue" stroke-width="4" />
<line x1="496.5358983848623" y1="509.0" x2="495.6698729810779" y2="508.5" stroke="blue" stroke-width="4" />
<line x1="495.6698729810779" y1="508.5" x2="494.8038475772935" y2="509.0" stroke="blue" stroke-width="4" />
<line x1="494.8038475772935" y1="509.0" x2="494.8038475772935" y2="508.0" stroke="blue" stroke-width="4" />
<line x1="494.8038475772935" y1="508.0" x2="493.93782217350906" y2="507.5" stroke="blue" stroke-width="4" />
<line x1="493.93782217350906" y1="507.5" x2="494.8038475772935" y2="507.0" stroke="blue" stroke-width="4" />
<line x1="494.8038475772935" y1="507.0" x2="494.8038475772935" y2="506.0" stroke="blue" stroke-width="4" />
<line x1="494.8038475772935" y1="506.0" x2="493.93782217350906" y2="505.5" stroke="blue" stroke-width="4" />
<line x1="493.93782217350906" y1="505.5" x2="493.07179676972464" y2="506.0" stroke="blue" stroke-width="4" />
<line x1="493.07179676972464" y1="506.0" x2="493.07179676972464" y2="505.0" stroke="blue" stroke-width="4" />
<line x1="493.07179676972464" y1="505.0" x2="492.2057713659402" y2="504.5" stroke="blue" stroke-width="4" />
<line x1="492.2057713659402" y1="504.5" x2="493.07179676972464" y2="504.0" stroke="blue" stroke-width="4" />
<line x1="493.07179676972464" y1="504.0" x2="493.07179676972464" y2="503.0" stroke="blue" stroke-width="4" />
<line x1="493.07179676972464" y1="503.0" x2="493.93782217350906" y2="503.5" stroke="blue" stroke-width="4" />
<line x1="493.93782217350906" y1="503.5" x2="494.8038475772935" y2="503.0" stroke="blue" stroke-width="4" />
<line x1="494.8038475772935" y1="503.0" x2="494.8038475772935" y2="502.0" stroke="blue" stroke-width="4" />
<line x1="494.8038475772935" y1="502.0" x2="493.93782217350906" y2="501.5" stroke="blue" stroke-width="4" />
<line x1="493.93782217350906" y1="501.5" x2="494.8038475772935" y2="501.0" stroke="blue" stroke-width="4" />
<line x1="494.8038475772935" y1="501.0" x2="494.8038475772935" y2="500.0" stroke="blue" stroke-width="4" />
<line x1="494.8038475772935" y1="500.0" x2="495.6698729810779" y2="500.5" stroke="blue" stroke-width="4" />
<line x1="495.6698729810779" y1="500.5" x2="496.5358983848623" y2="500.0" stroke="blue" stroke-width="4" />
<line x1="496.5358983848623" y1="500.0" x2="496.5358983848623" y2="501.0" stroke="blue" stroke-width="4" />
<line x1="496.5358983848623" y1="501.0" x2="497.40192378864674" y2="501.5" stroke="blue" stroke-width="4" />
<line x1="497.40192378864674" y1="501.5" x2="498.26794919243116" y2="501.0" stroke="blue" stroke-width="4" />
<line x1="498.26794919243116" y1="501.0" x2="498.26794919243116" y2="500.0" stroke="blue" stroke-width="4" />
<line x1="498.26794919243116" y1="500.0" x2="499.1339745962156" y2="500.5" stroke="blue" stroke-width="4" />
<line x1="499.1339745962156" y1="500.5" x2="500.0" y2="500.0" stroke="blue" stroke-width="4" />
</svg>
